# xmcd
#
# Track frame offsets:
#	150
#	18312
#	36666
#	54030
#	83127
#
# Disc length: 2015 seconds
#
# Revision: 0
# Processed by: cddbd v1.5.1PL0 Copyright (c) Steve Scherf et al.
# Submitted via: EasyCDDAExtractor 4.6.9.1
#
DISCID=3307dd05
DTITLE=Jojo - Leave Get Out (Single)
DYEAR=2004
DGENRE=Rnb
TTITLE0=Leave Get Out (Radio Edit)
TTITLE1=Leave Get Out (Album Version)
TTITLE2=Leave Get Out (Hip Hop Club Mix)
TTITLE3=Leave Get Out (Dance Mix)
TTITLE4=Video
EXTD=
EXTT0=
EXTT1=
EXTT2=
EXTT3=
EXTT4=
PLAYORDER=
